<svg xmlns="http://www.w3.org/2000/svg" viewBox="0 0 720 360">
  <!--
    Vector recreation of the iiko wordmark from artwork supplied by the site
    owner. Replace with the official brand file from iiko when available.
    Artwork is shown as-is on light tiles; do not recolor or distort.
  -->
  <g fill="#DB2B21">
    <!-- i dots -->
    <rect x="46" y="76" width="64" height="58" />
    <rect x="150" y="76" width="64" height="58" />
    <!-- i stems -->
    <rect x="46" y="166" width="64" height="154" />
    <rect x="150" y="166" width="64" height="154" />
    <!-- k -->
    <rect x="254" y="76" width="64" height="244" />
    <polygon points="318,232 398,76 466,76 355,240" />
    <polygon points="341,213 468,320 396,320 318,250" />
    <!-- o ring -->
    <path d="M556 150c-63 0-106 34-106 85s43 85 106 85 106-34 106-85-43-85-106-85Zm0 129c-25 0-40-17-40-44s15-44 40-44 40 17 40 44-15 44-40 44Z" />
    <!-- flame above the o -->
    <path d="M533 132c-8-14 2-22 10-31 7-8 9-15 4-27 12 4 18 13 15 25-2 9-10 14-13 21-2 5-1 9 2 14l-18-2Z" />
    <path d="M560 130c-9-16 1-25 9-35 6-8 8-16 3-28 13 5 20 15 17 28-2 10-11 16-14 24-2 5-1 9 3 13l-18-2Z" />
    <path d="M587 132c-8-14 1-22 9-31 6-7 8-14 4-26 11 4 17 13 14 24-2 9-9 14-12 21-2 5-1 9 2 14l-17-2Z" />
    <!-- TM -->
    <text x="648" y="106" font-family="Arial, Helvetica, sans-serif" font-size="38" font-weight="700">TM</text>
  </g>
</svg>
